<svg width="23" height="23" viewBox="0 0 23 23" fill="none" xmlns="http://www.w3.org/2000/svg">
<rect x="1" y="1" width="21" height="21" rx="2" stroke="white" stroke-width="2"/>
<path d="M7.11538 12.4C7.03846 12.32 7 12.2 7 12.12C7 12.04 7.03846 11.92 7.11538 11.84L7.65385 11.28C7.80769 11.12 8.03846 11.12 8.19231 11.28L8.23077 11.32L10.3462 13.68C10.4231 13.76 10.5385 13.76 10.6154 13.68L15.7692 8.12H15.8077C15.9615 7.96 16.1923 7.96 16.3462 8.12L16.8846 8.68C17.0385 8.84 17.0385 9.08 16.8846 9.24L10.7308 15.88C10.6538 15.96 10.5769 16 10.4615 16C10.3462 16 10.2692 15.96 10.1923 15.88L7.19231 12.52L7.11538 12.4Z" fill="#DEFF5A"/>
</svg>
